# xmcd
#
# Track frame offsets: 
#        150
#        20200
#        43285
#        64187
#        79967
#        91492
#        115242
#        125595
#        140432
#        160462
#
# Disc length: 2377 seconds
#
# Revision: 3
# Processed by: cddbd v1.5.2PL0 Copyright (c) Steve Scherf et al.
# Submitted via: ExactAudioCopy v1.0b1
#
DISCID=9409470a
DTITLE=Lou Rawls - Ten Best Series
DYEAR=1994
DGENRE=Pop
TTITLE0=You'll Never Find Another Love Like Mine
TTITLE1=This Song Will Last Forever
TTITLE2=Time Will Take Care Of Everything
TTITLE3=Show Business
TTITLE4=You Can Bring Me All Your Heartaches
TTITLE5=Tobacco Road
TTITLE6=Love Is A Hurtin' Thing
TTITLE7=See You When I Get There
TTITLE8=Your Good Thing (Is About To End)
TTITLE9=Dead End Street
EXTD=
EXTT0=
EXTT1=
EXTT2=
EXTT3=
EXTT4=
EXTT5=
EXTT6=
EXTT7=
EXTT8=
EXTT9=
PLAYORDER=
